<svg width="400" height="400" viewBox="0 0 400 400" xmlns="http://www.w3.org/2000/svg">
<style>
  .nd { fill: #00C8DC; }
  .ln { stroke: #00C8DC; stroke-width: 1.8; fill: none; stroke-linecap: round; stroke-linejoin: round; }
  .ld { stroke: #00C8DC; stroke-width: 1; fill: none; stroke-linecap: round; opacity: 0.45; }
  .ryx { font-family: Arial Black, Arial, sans-serif; font-size: 72px; font-weight: 900; fill: #00C8DC; letter-spacing: 6px; }
</style>

<!-- center -->
<circle cx="200" cy="168" r="3.5" class="nd"/>

<!-- top -->
<polyline points="200,164 200,138 200,110" class="ln"/>
<circle cx="200" cy="110" r="5" class="nd"/>
<polyline points="200,105 200,82" class="ln"/>
<circle cx="200" cy="82" r="3" class="nd"/>
<polyline points="200,82 168,82 168,60" class="ld"/>
<circle cx="168" cy="60" r="3" class="nd"/>
<polyline points="200,82 232,82 232,58 258,58" class="ld"/>
<circle cx="258" cy="58" r="3" class="nd"/>

<!-- top left -->
<polyline points="197,165 172,142 142,142 112,142" class="ln"/>
<circle cx="112" cy="142" r="5" class="nd"/>
<polyline points="112,142 82,142 82,118" class="ln"/>
<circle cx="82" cy="118" r="3" class="nd"/>
<polyline points="82,118 55,118" class="ld"/>
<circle cx="55" cy="118" r="3" class="nd"/>
<polyline points="82,118 82,92 58,92" class="ld"/>
<circle cx="58" cy="92" r="3" class="nd"/>
<polyline points="112,142 112,168 86,168" class="ld"/>
<circle cx="86" cy="168" r="3" class="nd"/>

<!-- top right -->
<polyline points="203,165 228,142 258,142 288,142" class="ln"/>
<circle cx="288" cy="142" r="5" class="nd"/>
<polyline points="288,142 318,142 318,118" class="ln"/>
<circle cx="318" cy="118" r="3" class="nd"/>
<polyline points="318,118 345,118" class="ld"/>
<circle cx="345" cy="118" r="3" class="nd"/>
<polyline points="318,118 318,92 342,92" class="ld"/>
<circle cx="342" cy="92" r="3" class="nd"/>
<polyline points="288,142 288,168 314,168" class="ld"/>
<circle cx="314" cy="168" r="3" class="nd"/>

<!-- left -->
<polyline points="196,168 158,168 128,168" class="ln"/>
<circle cx="128" cy="168" r="5" class="nd"/>
<polyline points="128,168 98,168 98,192" class="ln"/>
<circle cx="98" cy="192" r="3" class="nd"/>
<polyline points="98,192 68,192" class="ld"/>
<circle cx="68" cy="192" r="3" class="nd"/>
<polyline points="98,192 98,218 72,218" class="ld"/>
<circle cx="72" cy="218" r="3" class="nd"/>

<!-- right -->
<polyline points="204,168 242,168 272,168" class="ln"/>
<circle cx="272" cy="168" r="5" class="nd"/>
<polyline points="272,168 302,168 302,192" class="ln"/>
<circle cx="302" cy="192" r="3" class="nd"/>
<polyline points="302,192 332,192" class="ld"/>
<circle cx="332" cy="192" r="3" class="nd"/>
<polyline points="302,192 302,218 328,218" class="ld"/>
<circle cx="328" cy="218" r="3" class="nd"/>

<!-- bottom left -->
<polyline points="197,171 172,196 142,218 118,232" class="ln"/>
<circle cx="118" cy="232" r="5" class="nd"/>
<polyline points="118,232 88,232 88,255" class="ln"/>
<circle cx="88" cy="255" r="3" class="nd"/>
<polyline points="88,255 60,255" class="ld"/>
<circle cx="60" cy="255" r="3" class="nd"/>
<polyline points="118,232 118,258 92,258" class="ld"/>
<circle cx="92" cy="258" r="3" class="nd"/>

<!-- bottom right -->
<polyline points="203,171 228,196 258,218 282,232" class="ln"/>
<circle cx="282" cy="232" r="5" class="nd"/>
<polyline points="282,232 312,232 312,255" class="ln"/>
<circle cx="312" cy="255" r="3" class="nd"/>
<polyline points="312,255 340,255" class="ld"/>
<circle cx="340" cy="255" r="3" class="nd"/>
<polyline points="282,232 282,258 308,258" class="ld"/>
<circle cx="308" cy="258" r="3" class="nd"/>

<!-- bottom center -->
<polyline points="200,172 200,205 200,228" class="ln"/>
<circle cx="200" cy="228" r="5" class="nd"/>
<polyline points="200,228 200,252" class="ln"/>
<circle cx="200" cy="252" r="3" class="nd"/>
<polyline points="200,252 168,252 168,272" class="ld"/>
<circle cx="168" cy="272" r="3" class="nd"/>
<polyline points="200,252 232,252 232,275" class="ld"/>
<circle cx="232" cy="275" r="3" class="nd"/>

<!-- RYX text -->
<text x="200" y="358" text-anchor="middle" class="ryx">RYX</text>

</svg>
